<?xml version="1.0" encoding="UTF-8"?><svg id="Layer_2" xmlns="http://www.w3.org/2000/svg" viewBox="0 0 253.66 261.34"><defs><style>.cls-1{fill:#231f20;stroke:#231f20;stroke-miterlimit:10;stroke-width:.75px;}</style></defs><g id="Layer_1-2"><path class="cls-1" d="m4.54,68.24s40.24,4.63,48.57,6.94c8.33,2.31,44.41,16.19,80.48,16.19,16.65.46,51.34.46,66.61-17.58,7.86-10.18-.93-22.67,2.78-29.6,3.7-6.94,6.01-11.1,6.01-11.1,0,0,8.79-.46,9.71-3.24.93-2.78,1.85-23.59-8.79-28.68-11.56-3.7-24.98,6.48-24.98,11.56v15.26s-8.79.93-8.79,3.24-1.39,7.86-1.39,7.86c0,0-6.48,4.16-16.65,4.16s-8.79,1.18-15.26,2.67c-6.48,1.49-14.32,0-14.32,0l-18.53,2.42,1.88,4.63s10.15,4.16,20.78,4.63c10.64.46,40.7-2.31,40.7-2.31,0,0-11.1,12.03-19.43,11.1-8.33-.93-11.98-7.86-25.42-5.09-13.44,2.78-6.5,4.63-26.39,4.63s-19.43.46-37.93-5.55c-19.43-4.16-20.35,1.39-27.75-.46-7.4-1.85-10.64-6.48-10.64-6.48l-21.28,7.86s-4.16.93-4.16,3.7,4.16,3.24,4.16,3.24Z"/><path class="cls-1" d="m118.33,171.39s-23.13,58.28-16.65,69.38c4.63,8.79,9.32,18.04,24.55,19.43,15.23,1.39,69.81.46,69.81.46,0,0,11.56-.46,15.26-8.33,0-.46,5.09,0,5.09,0,0,0-.93,7.4,27.29,7.4,13.88,0,10.18-24.98,4.63-30.07-5.55-5.09-11.1-2.31-11.1-2.31,0,0-5.09-1.85-10.18-5.09,0,0-5.55,4.16-12.95,4.16-1.39.46-1.85,8.79-11.56,6.48-6.94-2.78-14.34-14.74-39.32-15-24.98-.26-11.56,3.9-16.19,3.44-4.63-.46-8.79-12.95-7.86-19.43.93-6.48-.46-36.08-1.39-43.02-.93-6.94-6.48-39.32.93-49.96,7.4-10.64,22.2-23.13,22.2-23.13,0,0-9.25-1.85-12.49,0s-23.38,6.25-24.98,5.67c-2.78,2.19,3.7,18.85-6.48,50.76-2.78,19.89,1.39,29.14,1.39,29.14Z"/></g></svg>